FFmpeg version SVN-r25716, Copyright (c) 2000-2010 the FFmpeg developers  built on Nov 10 2010 12:23:18 with gcc 4.1.2 20080704 (Red Hat 4.1.2-48)  configuration: --enable-libmp3lame --enable-shared --disable-mmx --arch=x86_64  libavutil     50.33. 0 / 50.33. 0  libavcore      0.12. 1 /  0.12. 1  libavcodec    52.94. 4 / 52.94. 4  libavformat   52.84. 0 / 52.84. 0  libavdevice   52. 2. 2 / 52. 2. 2  libavfilter    1.59. 0 /  1.59. 0  libswscale     0.12. 0 /  0.12. 0Input #0, avi, from '/RAID10/data/converted_video_files/47513.avi':  Duration: 00:00:06.65, start: 0.000000, bitrate: 188670 kb/s    Stream #0.0: Video: msvideo1, rgb555le, 1024x1024, 20 tbr, 20 tbn, 20 tbc[buffer @ 0x11093690] w:1024 h:1024 pixfmt:rgb555le[ffsink @ 0x11093900] auto-inserting filter 'auto-inserted scaler 0' between the filter 'src' and the filter 'out'[scale @ 0x11092810] w:1024 h:1024 fmt:rgb555le -> w:1024 h:1024 fmt:yuv420p flags:0x4Output #0, flv, to '/RAID10/data/converted_video_files/47513.flv':  Metadata:    encoder         : Lavf52.84.0    Stream #0.0: Video: flv, yuv420p, 1024x1024, q=2-31, 600 kb/s, 1k tbn, 24 tbcStream mapping:  Stream #0.0 -> #0.0Press [q] to stop encodingframe=    7 fps=  0 q=9.6 size=     838kB time=0.33 bitrate=20547.9kbits/s    frame=   16 fps= 14 q=31.0 size=     880kB time=0.79 bitrate=9099.5kbits/s    frame=   23 fps= 14 q=31.0 size=     887kB time=1.12 bitrate=6465.8kbits/s    frame=   34 fps= 15 q=31.0 size=     923kB time=1.71 bitrate=4424.7kbits/s    frame=   42 fps= 15 q=31.0 size=     956kB time=2.08 bitrate=3756.7kbits/s    frame=   50 fps= 15 q=31.0 size=     989kB time=2.50 bitrate=3242.5kbits/s    frame=   60 fps= 16 q=31.0 size=     998kB time=3.00 bitrate=2726.0kbits/s    frame=   71 fps= 16 q=31.0 size=    1032kB time=3.54 bitrate=2387.4kbits/s    frame=   81 fps= 17 q=31.0 size=    1067kB time=4.04 bitrate=2162.2kbits/s    frame=   91 fps= 17 q=31.0 size=    1101kB time=4.54 bitrate=1985.8kbits/s    frame=  102 fps= 17 q=31.0 size=    1136kB time=5.08 bitrate=1829.8kbits/s    frame=  110 fps= 17 q=31.0 size=    1167kB time=5.50 bitrate=1738.1kbits/s    frame=  119 fps= 17 q=31.0 size=    1173kB time=5.96 bitrate=1612.7kbits/s    frame=  130 fps= 17 q=31.0 size=    1206kB time=6.50 bitrate=1520.2kbits/s    frame=  133 fps= 17 q=24.8 Lsize=    1235kB time=6.62 bitrate=1526.7kbits/s    video:1232kB audio:0kB global headers:0kB muxing overhead 0.185271%